<?xml version="1.0" standalone="no"?>
<!DOCTYPE svg PUBLIC "-//W3C//DTD SVG 20010904//EN"
 "http://www.w3.org/TR/2001/REC-SVG-20010904/DTD/svg10.dtd">
<svg version="1.0" xmlns="http://www.w3.org/2000/svg"
 width="250.000000pt" height="250.000000pt" viewBox="0 0 250.000000 250.000000"
 preserveAspectRatio="xMidYMid meet">
<metadata>
Created by potrace 1.14, written by Peter Selinger 2001-2017
</metadata>
<g transform="translate(0.000000,250.000000) scale(0.100000,-0.100000)"
fill="#000000" stroke="none">
<path d="M0 1250 l0 -1250 1250 0 1250 0 0 1250 0 1250 -1250 0 -1250 0 0
-1250z m1360 811 c0 -5 24 -14 52 -21 372 -79 638 -409 638 -790 0 -301 -172
-580 -443 -717 -73 -36 -179 -73 -212 -73 -12 0 -26 -5 -32 -11 -6 -6 -52 -9
-124 -7 -229 8 -420 90 -580 252 -99 100 -184 257 -210 386 -6 33 -16 60 -20
60 -5 0 -9 52 -9 115 0 63 4 115 9 115 5 0 14 24 21 52 42 198 157 371 325
490 88 63 216 117 313 133 23 4 42 11 42 16 0 5 52 9 115 9 63 0 115 -4 115
-9z"/>
<path d="M1067 1910 c-407 -108 -620 -555 -447 -936 86 -189 247 -325 452
-381 85 -24 251 -24 338 0 383 103 598 491 481 867 -31 98 -87 186 -176 275
-88 89 -177 140 -300 175 -91 26 -251 26 -348 0z m470 -363 c35 -18 63 -62 63
-97 0 -20 -4 -20 -360 -20 l-360 0 0 63 c0 35 3 67 7 71 4 4 145 6 313 4 269
-3 309 -5 337 -21z m-257 -432 l0 -235 -25 0 c-36 0 -91 59 -98 106 -4 22 -7
83 -7 136 l0 97 -132 3 -133 3 -3 49 c-5 80 -16 76 203 76 l195 0 0 -235z"/>
</g>
</svg>
